<svg xmlns="http://www.w3.org/2000/svg" xmlns:xlink="http://www.w3.org/1999/xlink" width="233" zoomAndPan="magnify" viewBox="0 0 174.75 70.499998" height="94" preserveAspectRatio="xMidYMid meet" version="1.0"><defs><clipPath id="4bf8431ef4"><path d="M 11 14.328125 L 46 14.328125 L 46 35 L 11 35 Z M 11 14.328125 " clip-rule="nonzero"/></clipPath><clipPath id="1ba502a689"><path d="M 154 14.328125 L 159 14.328125 L 159 35 L 154 35 Z M 154 14.328125 " clip-rule="nonzero"/></clipPath><clipPath id="6197bfa303"><path d="M 10.214844 44 L 20 44 L 20 56 L 10.214844 56 Z M 10.214844 44 " clip-rule="nonzero"/></clipPath><clipPath id="bfed6c95c2"><path d="M 34 43 L 45 43 L 45 56.03125 L 34 56.03125 Z M 34 43 " clip-rule="nonzero"/></clipPath><clipPath id="d7140ff67a"><path d="M 77 43 L 89 43 L 89 56.03125 L 77 56.03125 Z M 77 43 " clip-rule="nonzero"/></clipPath><clipPath id="9384338eee"><path d="M 102 43 L 114 43 L 114 56.03125 L 102 56.03125 Z M 102 43 " clip-rule="nonzero"/></clipPath><clipPath id="bf851b3122"><path d="M 117 43 L 129 43 L 129 56.03125 L 117 56.03125 Z M 117 43 " clip-rule="nonzero"/></clipPath><clipPath id="31e1a14eba"><path d="M 150 43 L 159 43 L 159 56.03125 L 150 56.03125 Z M 150 43 " clip-rule="nonzero"/></clipPath></defs><g clip-path="url(#4bf8431ef4)"><path fill="#0f6cbd" d="M 28.242188 31.109375 L 41.191406 15.621094 C 41.777344 14.921875 42.5 14.644531 43.394531 14.644531 C 44.761719 14.644531 45.460938 15.285156 45.460938 16.539062 L 45.460938 33.621094 C 45.460938 34.679688 44.816406 34.929688 43.589844 34.929688 C 42.363281 34.929688 41.71875 34.679688 41.71875 33.621094 L 41.71875 20.390625 L 30.585938 33.871094 C 29.941406 34.625 29.355469 34.929688 28.378906 34.929688 C 27.320312 34.929688 26.621094 34.597656 26.035156 33.871094 L 14.871094 20.390625 L 14.871094 33.621094 C 14.871094 34.679688 14.230469 34.929688 13.003906 34.929688 C 11.804688 34.929688 11.160156 34.679688 11.160156 33.621094 L 11.160156 16.539062 C 11.160156 15.285156 11.859375 14.644531 13.199219 14.644531 C 14.148438 14.644531 14.84375 14.976562 15.402344 15.621094 Z M 28.242188 31.109375 " fill-opacity="1" fill-rule="nonzero"/></g><path fill="#0f6cbd" d="M 68.40625 28.539062 L 51.382812 28.539062 L 51.382812 29.964844 C 51.382812 31.082031 52.722656 32 55.847656 32 L 59.058594 32 C 59.894531 32 60.0625 32.476562 60.0625 33.398438 C 60.0625 34.316406 59.894531 34.820312 59.058594 34.820312 L 55.738281 34.820312 C 50.488281 34.820312 47.839844 33.203125 47.839844 29.964844 L 47.839844 23.90625 C 47.839844 20.644531 50.488281 19.050781 55.738281 19.050781 L 62.183594 19.050781 C 67.765625 19.050781 70.082031 20.644531 70.082031 23.90625 L 70.082031 27.117188 C 70.082031 28.207031 69.832031 28.539062 68.40625 28.539062 Z M 51.382812 23.90625 L 51.382812 25.777344 L 66.535156 25.777344 L 66.535156 23.90625 C 66.535156 22.625 65.199219 21.871094 62.070312 21.871094 L 55.847656 21.871094 C 52.722656 21.871094 51.382812 22.765625 51.382812 23.90625 Z M 51.382812 23.90625 " fill-opacity="1" fill-rule="nonzero"/><path fill="#0f6cbd" d="M 92.554688 28.539062 L 75.53125 28.539062 L 75.53125 29.964844 C 75.53125 31.082031 76.871094 32 79.996094 32 L 83.203125 32 C 84.042969 32 84.210938 32.476562 84.210938 33.398438 C 84.210938 34.316406 84.042969 34.820312 83.203125 34.820312 L 79.882812 34.820312 C 74.636719 34.820312 71.984375 33.203125 71.984375 29.964844 L 71.984375 23.90625 C 71.984375 20.644531 74.636719 19.050781 79.882812 19.050781 L 86.332031 19.050781 C 91.910156 19.050781 94.226562 20.644531 94.226562 23.90625 L 94.226562 27.117188 C 94.226562 28.207031 93.976562 28.539062 92.554688 28.539062 Z M 75.53125 23.90625 L 75.53125 25.777344 L 90.683594 25.777344 L 90.683594 23.90625 C 90.683594 22.625 89.34375 21.871094 86.21875 21.871094 L 79.996094 21.871094 C 76.871094 21.871094 75.53125 22.765625 75.53125 23.90625 Z M 75.53125 23.90625 " fill-opacity="1" fill-rule="nonzero"/><path fill="#0f6cbd" d="M 111.453125 34.820312 L 103.863281 34.820312 C 98.617188 34.820312 95.964844 33.203125 95.964844 29.964844 L 95.964844 28.484375 C 95.964844 25.21875 98.617188 23.628906 103.863281 23.628906 L 115.808594 23.628906 L 115.808594 23.601562 C 115.808594 22.539062 114.46875 21.871094 111.34375 21.871094 L 99.6875 21.871094 C 98.851562 21.871094 98.65625 21.394531 98.65625 20.476562 C 98.65625 19.527344 98.851562 19.050781 99.6875 19.050781 L 111.453125 19.050781 C 116.699219 19.050781 119.351562 20.644531 119.351562 23.90625 L 119.351562 29.964844 C 119.351562 33.203125 116.699219 34.820312 111.453125 34.820312 Z M 111.34375 32 C 114.46875 32 115.808594 31.082031 115.808594 29.964844 L 115.808594 26.335938 L 103.972656 26.335938 C 100.847656 26.335938 99.507812 27.230469 99.507812 28.375 L 99.507812 29.964844 C 99.507812 31.082031 100.847656 32 103.972656 32 Z M 111.34375 32 " fill-opacity="1" fill-rule="nonzero"/><path fill="#0f6cbd" d="M 150.195312 34.929688 C 148.996094 34.929688 148.410156 34.679688 148.410156 33.621094 L 148.410156 23.90625 C 148.410156 22.765625 147.292969 21.871094 144.167969 21.871094 L 142.605469 21.871094 C 139.507812 21.871094 138.558594 22.765625 138.558594 23.90625 L 138.558594 33.621094 C 138.558594 34.679688 137.972656 34.929688 136.773438 34.929688 C 135.515625 34.929688 135.011719 34.625 135.011719 33.621094 L 135.011719 23.90625 C 135.011719 22.765625 134.066406 21.871094 130.96875 21.871094 L 129.402344 21.871094 C 126.277344 21.871094 125.164062 22.765625 125.164062 23.90625 L 125.164062 33.621094 C 125.164062 34.679688 124.574219 34.929688 123.375 34.929688 C 122.203125 34.929688 121.617188 34.679688 121.617188 33.621094 L 121.617188 23.90625 C 121.617188 20.644531 124.269531 19.050781 128.789062 19.050781 L 131.554688 19.050781 C 133.871094 19.050781 135.65625 19.527344 136.773438 20.449219 C 137.917969 19.527344 139.675781 19.050781 142.019531 19.050781 L 144.78125 19.050781 C 149.300781 19.050781 151.953125 20.644531 151.953125 23.90625 L 151.953125 33.621094 C 151.953125 34.679688 151.367188 34.929688 150.195312 34.929688 Z M 150.195312 34.929688 " fill-opacity="1" fill-rule="nonzero"/><g clip-path="url(#1ba502a689)"><path fill="#0f6cbd" d="M 158.003906 20.449219 L 158.003906 33.621094 C 158.003906 34.679688 157.417969 34.929688 156.21875 34.929688 C 155.046875 34.929688 154.460938 34.679688 154.460938 33.621094 L 154.460938 20.449219 C 154.460938 19.386719 155.046875 19.136719 156.21875 19.136719 C 157.417969 19.136719 158.003906 19.386719 158.003906 20.449219 Z M 154.015625 16.207031 C 154.015625 15.003906 154.65625 14.476562 156.21875 14.476562 C 157.78125 14.476562 158.425781 15.003906 158.425781 16.207031 C 158.425781 17.40625 157.78125 17.9375 156.21875 17.9375 C 154.65625 17.9375 154.015625 17.40625 154.015625 16.207031 Z M 154.015625 16.207031 " fill-opacity="1" fill-rule="nonzero"/></g><g clip-path="url(#6197bfa303)"><path fill="#0f6cbd" d="M 14.109375 55.929688 L 14.109375 45.492188 L 10.402344 45.492188 L 10.402344 44.171875 L 19.28125 44.171875 L 19.28125 45.492188 L 15.574219 45.492188 L 15.574219 55.929688 Z M 14.109375 55.929688 " fill-opacity="1" fill-rule="nonzero"/></g><path fill="#0f6cbd" d="M 23.421875 55.929688 L 23.421875 44.171875 L 30.703125 44.171875 L 30.703125 45.492188 L 24.886719 45.492188 L 24.886719 49.265625 L 30.402344 49.265625 L 30.402344 50.566406 L 24.886719 50.566406 L 24.886719 54.609375 L 30.703125 54.609375 L 30.703125 55.929688 Z M 23.421875 55.929688 " fill-opacity="1" fill-rule="nonzero"/><g clip-path="url(#bfed6c95c2)"><path fill="#0f6cbd" d="M 40.148438 56.125 C 39.0625 56.125 38.113281 55.875 37.304688 55.375 C 36.5 54.875 35.878906 54.171875 35.4375 53.265625 C 35 52.351562 34.777344 51.28125 34.777344 50.046875 L 34.777344 50.039062 C 34.777344 48.804688 35 47.734375 35.4375 46.828125 C 35.878906 45.921875 36.5 45.222656 37.304688 44.726562 C 38.109375 44.226562 39.054688 43.976562 40.148438 43.976562 C 40.960938 43.976562 41.703125 44.132812 42.371094 44.441406 C 43.039062 44.75 43.59375 45.183594 44.039062 45.738281 C 44.492188 46.292969 44.789062 46.941406 44.9375 47.683594 L 44.953125 47.765625 L 43.46875 47.765625 L 43.414062 47.585938 C 43.261719 47.109375 43.03125 46.703125 42.730469 46.371094 C 42.429688 46.035156 42.0625 45.777344 41.628906 45.597656 C 41.195312 45.421875 40.699219 45.332031 40.148438 45.332031 C 39.363281 45.332031 38.683594 45.527344 38.101562 45.917969 C 37.527344 46.300781 37.078125 46.847656 36.757812 47.554688 C 36.445312 48.253906 36.285156 49.082031 36.285156 50.039062 L 36.285156 50.046875 C 36.285156 50.996094 36.445312 51.828125 36.757812 52.539062 C 37.078125 53.246094 37.53125 53.792969 38.109375 54.183594 C 38.691406 54.574219 39.371094 54.769531 40.148438 54.769531 C 40.695312 54.769531 41.183594 54.679688 41.613281 54.503906 C 42.046875 54.324219 42.417969 54.058594 42.730469 53.710938 C 43.039062 53.359375 43.277344 52.925781 43.445312 52.410156 L 43.46875 52.335938 L 44.953125 52.335938 L 44.9375 52.417969 C 44.789062 53.167969 44.492188 53.820312 44.046875 54.378906 C 43.601562 54.933594 43.046875 55.363281 42.378906 55.667969 C 41.710938 55.972656 40.96875 56.125 40.148438 56.125 Z M 40.148438 56.125 " fill-opacity="1" fill-rule="nonzero"/></g><path fill="#0f6cbd" d="M 49.28125 55.929688 L 49.28125 44.171875 L 50.746094 44.171875 L 50.746094 49.257812 L 57.199219 49.257812 L 57.199219 44.171875 L 58.664062 44.171875 L 58.664062 55.929688 L 57.199219 55.929688 L 57.199219 50.574219 L 50.746094 50.574219 L 50.746094 55.929688 Z M 49.28125 55.929688 " fill-opacity="1" fill-rule="nonzero"/><path fill="#0f6cbd" d="M 63.539062 55.929688 L 63.539062 44.171875 L 64.960938 44.171875 L 72.675781 55.242188 L 70.820312 53.453125 L 71.472656 53.453125 L 71.472656 44.171875 L 72.921875 44.171875 L 72.921875 55.929688 L 71.496094 55.929688 L 63.78125 44.859375 L 65.640625 46.648438 L 64.988281 46.648438 L 64.988281 55.929688 Z M 63.539062 55.929688 " fill-opacity="1" fill-rule="nonzero"/><g clip-path="url(#d7140ff67a)"><path fill="#0f6cbd" d="M 82.761719 56.125 C 81.648438 56.125 80.6875 55.875 79.871094 55.382812 C 79.0625 54.886719 78.4375 54.1875 77.996094 53.28125 C 77.558594 52.375 77.339844 51.296875 77.339844 50.054688 L 77.339844 50.039062 C 77.339844 48.792969 77.558594 47.722656 77.996094 46.820312 C 78.441406 45.914062 79.070312 45.214844 79.878906 44.71875 C 80.695312 44.226562 81.65625 43.976562 82.761719 43.976562 C 83.871094 43.976562 84.828125 44.226562 85.636719 44.71875 C 86.449219 45.214844 87.070312 45.914062 87.511719 46.820312 C 87.953125 47.722656 88.171875 48.792969 88.171875 50.039062 L 88.171875 50.054688 C 88.171875 51.296875 87.953125 52.375 87.511719 53.28125 C 87.070312 54.1875 86.449219 54.886719 85.636719 55.382812 C 84.835938 55.875 83.875 56.125 82.761719 56.125 Z M 82.761719 54.769531 C 83.574219 54.769531 84.265625 54.578125 84.847656 54.191406 C 85.433594 53.800781 85.886719 53.253906 86.199219 52.546875 C 86.515625 51.839844 86.671875 51.011719 86.671875 50.054688 L 86.671875 50.039062 C 86.671875 49.078125 86.511719 48.242188 86.191406 47.539062 C 85.878906 46.832031 85.425781 46.289062 84.839844 45.910156 C 84.253906 45.523438 83.5625 45.332031 82.761719 45.332031 C 81.964844 45.332031 81.269531 45.523438 80.679688 45.910156 C 80.089844 46.289062 79.636719 46.832031 79.316406 47.539062 C 78.996094 48.238281 78.835938 49.070312 78.835938 50.039062 L 78.835938 50.054688 C 78.835938 51.015625 78.996094 51.847656 79.316406 52.554688 C 79.636719 53.261719 80.089844 53.808594 80.679688 54.191406 C 81.265625 54.578125 81.960938 54.769531 82.761719 54.769531 Z M 82.761719 54.769531 " fill-opacity="1" fill-rule="nonzero"/></g><path fill="#0f6cbd" d="M 92.589844 55.929688 L 92.589844 44.171875 L 94.054688 44.171875 L 94.054688 54.609375 L 99.722656 54.609375 L 99.722656 55.929688 Z M 92.589844 55.929688 " fill-opacity="1" fill-rule="nonzero"/><g clip-path="url(#9384338eee)"><path fill="#0f6cbd" d="M 108.410156 56.125 C 107.296875 56.125 106.332031 55.875 105.519531 55.382812 C 104.710938 54.886719 104.085938 54.1875 103.644531 53.28125 C 103.203125 52.375 102.984375 51.296875 102.984375 50.054688 L 102.984375 50.039062 C 102.984375 48.792969 103.203125 47.722656 103.644531 46.820312 C 104.089844 45.914062 104.71875 45.214844 105.527344 44.71875 C 106.339844 44.226562 107.300781 43.976562 108.410156 43.976562 C 109.519531 43.976562 110.476562 44.226562 111.285156 44.71875 C 112.09375 45.214844 112.71875 45.914062 113.160156 46.820312 C 113.597656 47.722656 113.820312 48.792969 113.820312 50.039062 L 113.820312 50.054688 C 113.820312 51.296875 113.597656 52.375 113.160156 53.28125 C 112.71875 54.1875 112.09375 54.886719 111.285156 55.382812 C 110.480469 55.875 109.523438 56.125 108.410156 56.125 Z M 108.410156 54.769531 C 109.21875 54.769531 109.914062 54.578125 110.496094 54.191406 C 111.082031 53.800781 111.53125 53.253906 111.847656 52.546875 C 112.164062 51.839844 112.320312 51.011719 112.320312 50.054688 L 112.320312 50.039062 C 112.320312 49.078125 112.160156 48.242188 111.839844 47.539062 C 111.523438 46.832031 111.074219 46.289062 110.488281 45.910156 C 109.902344 45.523438 109.207031 45.332031 108.410156 45.332031 C 107.613281 45.332031 106.917969 45.523438 106.324219 45.910156 C 105.738281 46.289062 105.285156 46.832031 104.964844 47.539062 C 104.644531 48.238281 104.484375 49.070312 104.484375 50.039062 L 104.484375 50.054688 C 104.484375 51.015625 104.644531 51.847656 104.964844 52.554688 C 105.285156 53.261719 105.738281 53.808594 106.324219 54.191406 C 106.910156 54.578125 107.605469 54.769531 108.410156 54.769531 Z M 108.410156 54.769531 " fill-opacity="1" fill-rule="nonzero"/></g><g clip-path="url(#bf851b3122)"><path fill="#0f6cbd" d="M 123.164062 56.125 C 122.34375 56.125 121.601562 55.980469 120.941406 55.699219 C 120.277344 55.410156 119.710938 55 119.238281 54.460938 C 118.769531 53.925781 118.410156 53.277344 118.15625 52.523438 C 117.90625 51.769531 117.78125 50.921875 117.78125 49.988281 L 117.78125 49.980469 C 117.78125 48.753906 118 47.691406 118.4375 46.796875 C 118.886719 45.902344 119.507812 45.207031 120.3125 44.71875 C 121.121094 44.226562 122.074219 43.976562 123.164062 43.976562 C 124.066406 43.976562 124.84375 44.136719 125.5 44.457031 C 126.164062 44.773438 126.707031 45.207031 127.128906 45.753906 C 127.554688 46.296875 127.855469 46.914062 128.035156 47.609375 L 128.074219 47.765625 L 126.535156 47.765625 L 126.503906 47.675781 C 126.230469 46.933594 125.8125 46.355469 125.25 45.949219 C 124.683594 45.535156 123.988281 45.332031 123.164062 45.332031 C 122.359375 45.332031 121.667969 45.519531 121.085938 45.890625 C 120.503906 46.261719 120.058594 46.792969 119.742188 47.488281 C 119.433594 48.183594 119.277344 49.015625 119.277344 49.980469 L 119.277344 49.988281 C 119.277344 50.726562 119.367188 51.394531 119.546875 51.984375 C 119.726562 52.570312 119.984375 53.074219 120.320312 53.492188 C 120.664062 53.90625 121.074219 54.222656 121.550781 54.445312 C 122.027344 54.664062 122.566406 54.769531 123.164062 54.769531 C 123.859375 54.769531 124.46875 54.632812 124.996094 54.355469 C 125.527344 54.074219 125.941406 53.683594 126.234375 53.183594 C 126.535156 52.683594 126.683594 52.105469 126.683594 51.449219 L 126.683594 51.234375 L 123.367188 51.234375 L 123.367188 49.949219 L 128.148438 49.949219 L 128.148438 51.066406 C 128.148438 51.859375 128.035156 52.566406 127.808594 53.191406 C 127.585938 53.816406 127.257812 54.347656 126.828125 54.789062 C 126.398438 55.222656 125.875 55.554688 125.257812 55.78125 C 124.644531 56.007812 123.945312 56.125 123.164062 56.125 Z M 123.164062 56.125 " fill-opacity="1" fill-rule="nonzero"/></g><path fill="#0f6cbd" d="M 132.625 44.171875 L 134.089844 44.171875 L 134.089844 55.929688 L 132.625 55.929688 Z M 132.625 44.171875 " fill-opacity="1" fill-rule="nonzero"/><path fill="#0f6cbd" d="M 138.960938 55.929688 L 138.960938 44.171875 L 146.246094 44.171875 L 146.246094 45.492188 L 140.429688 45.492188 L 140.429688 49.265625 L 145.945312 49.265625 L 145.945312 50.566406 L 140.429688 50.566406 L 140.429688 54.609375 L 146.246094 54.609375 L 146.246094 55.929688 Z M 138.960938 55.929688 " fill-opacity="1" fill-rule="nonzero"/><g clip-path="url(#31e1a14eba)"><path fill="#0f6cbd" d="M 154.621094 56.125 C 153.773438 56.125 153.027344 55.992188 152.378906 55.730469 C 151.738281 55.464844 151.230469 55.089844 150.847656 54.601562 C 150.476562 54.109375 150.261719 53.53125 150.214844 52.863281 L 150.207031 52.75 L 151.671875 52.75 L 151.6875 52.863281 C 151.746094 53.257812 151.90625 53.59375 152.167969 53.882812 C 152.429688 54.164062 152.773438 54.386719 153.203125 54.542969 C 153.636719 54.695312 154.136719 54.769531 154.703125 54.769531 C 155.265625 54.769531 155.753906 54.691406 156.167969 54.535156 C 156.582031 54.371094 156.898438 54.140625 157.121094 53.84375 C 157.347656 53.542969 157.464844 53.195312 157.464844 52.792969 L 157.464844 52.785156 C 157.464844 52.269531 157.285156 51.855469 156.925781 51.546875 C 156.566406 51.234375 155.984375 50.992188 155.175781 50.8125 L 153.871094 50.527344 C 152.726562 50.273438 151.875 49.882812 151.320312 49.355469 C 150.773438 48.820312 150.5 48.128906 150.5 47.269531 L 150.5 47.261719 C 150.503906 46.613281 150.683594 46.046875 151.035156 45.558594 C 151.390625 45.0625 151.875 44.679688 152.496094 44.402344 C 153.121094 44.121094 153.832031 43.976562 154.636719 43.976562 C 155.402344 43.976562 156.085938 44.117188 156.691406 44.394531 C 157.292969 44.664062 157.773438 45.046875 158.132812 45.535156 C 158.496094 46.023438 158.699219 46.585938 158.742188 47.226562 L 158.75 47.351562 L 157.285156 47.351562 L 157.269531 47.238281 C 157.207031 46.835938 157.0625 46.492188 156.828125 46.210938 C 156.59375 45.925781 156.289062 45.710938 155.90625 45.558594 C 155.53125 45.40625 155.097656 45.332031 154.597656 45.332031 C 154.074219 45.332031 153.617188 45.410156 153.226562 45.566406 C 152.835938 45.722656 152.53125 45.945312 152.316406 46.226562 C 152.105469 46.507812 151.996094 46.839844 151.996094 47.21875 L 151.996094 47.226562 C 151.996094 47.707031 152.179688 48.101562 152.542969 48.410156 C 152.90625 48.71875 153.472656 48.957031 154.238281 49.125 L 155.542969 49.410156 C 156.34375 49.585938 156.996094 49.816406 157.496094 50.105469 C 158 50.390625 158.371094 50.75 158.605469 51.179688 C 158.84375 51.601562 158.960938 52.113281 158.960938 52.710938 L 158.960938 52.71875 C 158.960938 53.414062 158.785156 54.015625 158.433594 54.527344 C 158.085938 55.039062 157.585938 55.429688 156.933594 55.707031 C 156.289062 55.984375 155.515625 56.125 154.621094 56.125 Z M 154.621094 56.125 " fill-opacity="1" fill-rule="nonzero"/></g></svg>