<?xml version="1.0" standalone="no"?>
<!DOCTYPE svg PUBLIC "-//W3C//DTD SVG 20010904//EN"
 "http://www.w3.org/TR/2001/REC-SVG-20010904/DTD/svg10.dtd">
<svg version="1.0" xmlns="http://www.w3.org/2000/svg"
 width="328.000000pt" height="109.000000pt" viewBox="0 0 328.000000 109.000000"
 preserveAspectRatio="xMidYMid meet">

<g transform="translate(0.000000,109.000000) scale(0.100000,-0.100000)"
fill="#000000" stroke="none">
<path d="M111 946 c-8 -9 -11 -73 -9 -207 l3 -194 30 0 30 0 5 149 5 149 125
-149 c132 -156 153 -172 192 -137 11 10 71 79 132 152 l111 135 5 -150 5 -149
30 0 30 0 3 202 2 203 -25 6 c-15 4 -33 1 -44 -7 -11 -8 -79 -85 -151 -171
-72 -87 -133 -158 -135 -158 -2 0 -61 69 -131 153 -70 83 -136 160 -146 170
-24 21 -51 22 -67 3z"/>
<path d="M3097 954 c-4 -4 -7 -18 -7 -31 0 -22 4 -24 38 -21 32 3 37 6 37 28
0 21 -5 26 -30 28 -17 2 -34 0 -38 -4z"/>
<path d="M955 859 c-21 -5 -50 -19 -62 -31 -21 -20 -23 -30 -23 -123 0 -92 2
-103 23 -122 29 -27 87 -43 159 -43 60 0 73 8 63 40 -5 17 -15 20 -71 20 -77
0 -104 12 -104 45 l0 25 183 0 c129 0 187 4 195 12 15 15 16 75 1 117 -18 52
-56 64 -199 67 -69 2 -143 -1 -165 -7z m283 -65 c12 -8 22 -26 22 -40 l0 -24
-160 0 -160 0 0 30 c0 17 7 33 18 39 9 6 71 11 137 11 93 0 126 -4 143 -16z"/>
<path d="M1465 861 c-43 -11 -73 -29 -85 -51 -13 -24 -13 -186 0 -211 19 -35
70 -52 155 -53 79 -1 80 -1 80 24 0 24 -3 25 -71 30 -74 5 -104 20 -104 51 0
18 11 19 179 19 99 0 186 3 195 6 12 5 16 20 16 64 0 76 -22 104 -91 119 -55
12 -227 13 -274 2z m276 -61 c12 -7 19 -21 19 -40 l0 -30 -160 0 -160 0 0 24
c0 45 32 56 163 56 65 0 127 -5 138 -10z"/>
<path d="M1934 856 c-16 -42 -3 -46 164 -46 152 0 182 -5 182 -32 0 -4 -70 -8
-155 -8 -168 0 -209 -9 -239 -51 -34 -49 -15 -128 36 -156 28 -15 58 -18 188
-18 223 0 250 17 250 158 0 146 -21 160 -252 165 -147 4 -169 2 -174 -12z
m356 -180 c0 -69 -17 -76 -175 -76 -152 0 -178 10 -173 63 5 49 32 57 201 57
l147 0 0 -44z"/>
<path d="M2492 860 c-18 -4 -44 -18 -58 -31 -24 -22 -24 -26 -22 -154 l3 -130
30 0 30 0 3 120 c2 98 5 122 19 133 20 14 151 16 173 2 12 -7 16 -38 20 -132
l5 -123 30 0 30 0 3 120 c3 142 5 145 103 145 102 0 108 -8 111 -150 l3 -115
30 0 30 0 3 116 c3 134 -4 161 -50 185 -45 24 -161 29 -220 11 -40 -13 -53
-13 -85 -1 -41 14 -138 17 -191 4z"/>
<path d="M3096 844 c-9 -24 -7 -277 3 -292 4 -8 19 -12 32 -10 l24 3 3 158 3
157 -30 0 c-17 0 -31 -6 -35 -16z"/>
<path d="M670 343 c-29 -11 -50 -37 -60 -75 -22 -81 20 -158 86 -158 40 0 81
17 89 38 9 24 -2 26 -31 3 -15 -11 -39 -21 -55 -21 -77 0 -97 155 -23 189 28
12 50 6 81 -22 27 -24 39 -18 24 11 -16 30 -75 48 -111 35z"/>
<path d="M1545 336 c-38 -16 -55 -53 -55 -117 0 -42 5 -55 29 -80 41 -41 101
-41 142 0 24 25 29 37 29 81 0 65 -21 105 -61 119 -40 14 -47 13 -84 -3z m103
-42 c26 -30 29 -81 7 -124 -27 -53 -103 -53 -130 0 -30 58 -12 130 39 150 29
12 57 3 84 -26z"/>
<path d="M2083 335 c-54 -23 -75 -94 -48 -162 18 -44 47 -63 100 -63 53 0 87
35 93 98 6 66 -11 106 -53 126 -40 19 -51 19 -92 1z m102 -36 c30 -30 28 -109
-4 -143 -53 -57 -131 -16 -131 69 0 38 5 52 30 77 25 24 36 29 58 23 15 -3 36
-15 47 -26z"/>
<path d="M2393 340 c-51 -21 -76 -101 -52 -168 33 -96 189 -78 189 23 0 35 0
35 -45 35 -25 0 -45 -4 -45 -10 0 -5 16 -10 35 -10 42 0 48 -25 12 -58 -65
-61 -152 14 -127 108 18 67 98 89 134 38 8 -11 20 -18 27 -16 7 2 4 13 -12 31
-26 30 -80 43 -116 27z"/>
<path d="M3070 343 c-48 -19 -65 -67 -34 -97 8 -9 36 -21 60 -27 55 -14 74
-42 48 -70 -22 -25 -69 -24 -94 1 -24 24 -30 25 -30 6 0 -23 41 -46 82 -46 44
0 78 28 78 64 0 34 -23 54 -76 67 -57 15 -73 40 -43 70 23 23 65 20 86 -8 6
-8 17 -13 23 -11 8 2 6 11 -7 26 -19 23 -66 36 -93 25z"/>
<path d="M90 331 c0 -6 17 -11 38 -13 l37 -3 3 -102 c4 -137 22 -135 22 2 l0
105 35 0 c19 0 35 5 35 10 0 6 -35 10 -85 10 -47 0 -85 -4 -85 -9z"/>
<path d="M370 225 l0 -115 65 0 c37 0 65 4 65 10 0 6 -25 10 -55 10 l-55 0 0
45 0 45 55 0 c30 0 55 5 55 10 0 6 -25 10 -55 10 l-55 0 0 40 0 40 55 0 c30 0
55 5 55 10 0 6 -28 10 -65 10 l-65 0 0 -115z"/>
<path d="M900 225 c0 -70 4 -115 10 -115 6 0 10 25 10 55 l0 55 70 0 70 0 0
-55 c0 -30 5 -55 10 -55 6 0 10 45 10 115 0 70 -4 115 -10 115 -5 0 -10 -22
-10 -50 l0 -50 -70 0 -70 0 0 50 c0 28 -4 50 -10 50 -6 0 -10 -45 -10 -115z"/>
<path d="M1200 225 c0 -138 18 -156 22 -22 l3 92 65 -92 c36 -51 71 -92 78
-93 9 0 12 29 12 115 0 138 -18 156 -22 23 l-3 -93 -65 92 c-36 51 -71 92 -77
93 -10 0 -13 -29 -13 -115z"/>
<path d="M1800 225 l0 -115 70 0 c84 0 94 18 13 22 l-58 3 -3 103 c-4 141 -22
131 -22 -13z"/>
<path d="M2640 225 c0 -70 4 -115 10 -115 6 0 10 45 10 115 0 70 -4 115 -10
115 -6 0 -10 -45 -10 -115z"/>
<path d="M2780 225 l0 -115 65 0 c78 0 88 18 13 22 l-53 3 -3 43 -3 42 55 0
c31 0 56 5 56 10 0 6 -25 10 -55 10 l-55 0 0 40 0 40 55 0 c30 0 55 5 55 10 0
6 -28 10 -65 10 l-65 0 0 -115z"/>
</g>
</svg>
